<!--?xml version="1.0" standalone="no"?-->
              <svg id="sw-js-blob-svg" viewBox="0 0 100 100" xmlns="http://www.w3.org/2000/svg" version="1.1">
                    <defs> 
                        <linearGradient id="sw-gradient" x1="0" x2="1" y1="1" y2="0">
                            <stop id="stop1" stop-color="rgba(255, 139.393, 0, 1)" offset="0%"></stop>
                            <stop id="stop2" stop-color="rgba(251, 168, 31, 1)" offset="100%"></stop>
                        </linearGradient>
                    </defs>
                <path fill="none" d="M17.6,-31.2C18.2,-27,10.8,-14.3,9.3,-7.3C7.7,-0.3,11.9,1,14.9,4.5C18,7.9,20.1,13.5,19.6,20.5C19.1,27.5,16,35.9,10.9,37.6C5.8,39.3,-1.4,34.4,-4.5,27.8C-7.5,21.1,-6.3,12.8,-8.5,8.4C-10.8,4,-16.4,3.6,-22.6,-0.4C-28.8,-4.4,-35.7,-11.9,-32.2,-12.7C-28.7,-13.5,-14.9,-7.6,-7.8,-8.9C-0.7,-10.2,-0.4,-18.7,4.1,-25C8.5,-31.3,17,-35.5,17.6,-31.2Z" width="100%" height="100%" transform="translate(50 50)" stroke-width="1" style="transition: all 0.3s ease 0s;" stroke="url(#sw-gradient)"></path>
              </svg>